<?xml version="1.0" encoding="utf-8" ?><svg xmlns="http://www.w3.org/2000/svg" xmlns:xlink="http://www.w3.org/1999/xlink" width="1024" height="1024" viewBox="0 0 1024 1024"><path fill="#FD6304" d="M188.563 836.334C164.774 811.118 149.734 785.238 141.802 751.064C136.06 726.326 137.18 701.995 137.117 676.66L137.202 598.183L137.451 316.051C137.886 220.811 207.779 143.095 304.796 137.69C321.596 136.754 338.975 137.462 355.866 137.43C385.742 137.16 415.618 137.084 445.495 137.201L707.497 137.122C755.551 137.377 800.606 152.581 834.948 187.286C868.653 219.97 887.955 264.731 888.587 311.676C888.939 339.63 888.678 368.095 888.749 396.102L888.917 588.26L888.747 672.147C888.7 698.524 890.258 724.435 884.343 750.31C865.955 830.76 794.522 888.744 711.935 889.072L433.551 888.684L360.283 888.724C332.441 888.943 304.556 890.803 277.292 884.903C244.37 877.991 214.141 861.725 190.233 838.058C189.661 837.499 189.104 836.923 188.563 836.334Z"/><path fill="#4D54E9" d="M188.563 836.334C164.774 811.118 149.734 785.238 141.802 751.064C136.06 726.326 137.18 701.995 137.117 676.66L137.202 598.183L137.451 316.051C137.886 220.811 207.779 143.095 304.796 137.69C321.596 136.754 338.975 137.462 355.866 137.43C385.742 137.16 415.618 137.084 445.495 137.201L707.497 137.122C755.551 137.377 800.606 152.581 834.948 187.286C828.459 194.575 820.342 202.47 813.415 209.447L773.41 249.418L668.589 354.649L356.727 667.926L226.584 798.568C217.519 807.68 208.406 816.743 199.245 825.758C196.067 828.918 191.481 833.131 188.563 836.334Z"/></svg>